PathFileType	4	(X/Y/Z)	RBDS03\RBDS03runT45.trc
DataRate	CameraRate	NumFrames	NumMarkers	Units	OrigDataRate	OrigDataStartFrame	OrigNumFrames
150.000000	150.000000	4	33	mm	150.000000	1687	4500
Frame#	Time	L.ASIS			L.Heel.Bottom			L.Heel.Lateral			L.Heel.Top			L.Iliac.Crest			L.MT1			L.MT5			L.PSIS			L.Shank.Bottom.Lateral			L.Shank.Bottom.Medial			L.Shank.Top.Lateral			L.Shank.Top.Medial			L.Thigh.Bottom.Lateral			L.Thigh.Bottom.Medial			L.Thigh.Top.Lateral			L.Thigh.Top.Medial			R.ASIS			R.ASY			R.Heel.Bottom			R.Heel.Lateral			R.Heel.Top			R.Iliac.Crest			R.MT1			R.MT5			R.PSIS			R.Shank.Bottom.Lateral			R.Shank.Bottom.Medial			R.Shank.Top.Lateral			R.Shank.Top.Medial			R.Thigh.Bottom.Lateral			R.Thigh.Bottom.Medial			R.Thigh.Top.Lateral			R.Thigh.Top.Medial			
		X1	Y1	Z1	X2	Y2	Z2	X3	Y3	Z3	X4	Y4	Z4	X5	Y5	Z5	X6	Y6	Z6	X7	Y7	Z7	X8	Y8	Z8	X9	Y9	Z9	X10	Y10	Z10	X11	Y11	Z11	X12	Y12	Z12	X13	Y13	Z13	X14	Y14	Z14	X15	Y15	Z15	X16	Y16	Z16	X17	Y17	Z17	X18	Y18	Z18	X19	Y19	Z19	X20	Y20	Z20	X21	Y21	Z21	X22	Y22	Z22	X23	Y23	Z23	X24	Y24	Z24	X25	Y25	Z25	X26	Y26	Z26	X27	Y27	Z27	X28	Y28	Z28	X29	Y29	Z29	X30	Y30	Z30	X31	Y31	Z31	X32	Y32	Z32	X33	Y33	Z33	

1688	11.24666666666667	2456.58297350291	1076.165241471584	964.8594079891631	2465.258822105725	123.7569122457671	1050.449227526193	2490.578951687517	137.3336945388399	999.266580105205	2477.890931530377	172.9998082927389	1049.972866511116	2376.218646352803	1154.037666595935	926.3562195523203	2693.913189426972	135.0575032237268	1049.014760669967	2641.834183459778	126.8664341892638	951.4606105244681	2296.11903567519	1110.169544658007	1036.089411702602	2541.081420625019	264.9023299272748	980.0063480019576	2503.717963407564	272.9968697023943	1019.040159139405	2540.890712560289	342.8306739893103	962.6824864051628	2504.240396774057	351.8418450926933	1000.949175079405	2577.853304961804	690.8578587855058	938.9021213248619	2517.024205969361	660.3774614130185	966.6444906530603	2520.26047614772	781.7068878601351	914.6185822459064	2462.196478153941	753.1262539514235	939.9605357534739	2475.822058636003	1056.639692564831	1170.997588103105	-134465937.4101852	27118234.87819818	-79636302.07859527	1724.914008323711	384.1435819875084	1067.041133544764	1734.617177458552	353.982829457466	1121.222217560097	1770.652893854345	386.0613599783226	1085.602944624271	2454.921384369306	1143.126958391326	1211.194280391999	1796.729125212079	178.3227629046869	1053.770167359487	1742.852984725734	196.3143523839895	1153.277013583224	2306.655008229913	1111.787787481302	1118.449776687803	1827.098924857537	382.4313817489109	1155.114168496456	1816.23681517541	403.4338972390898	1109.245375821647	1877.080808815221	448.9898229777259	1171.535173141751	1862.073820236499	467.9742638967795	1124.070319153287	2184.063177363799	706.9995296279035	1213.808784202824	2129.424619425833	736.7484787281619	1175.190065384377	2226.85162075909	808.3348851927888	1228.340238224439	2176.76178172633	834.9711941937642	1189.58742155453	
1689	11.25333333333333	2456.375734652222	1076.484094680538	964.1981668704835	2494.669520076767	109.1701046501965	1051.853960768637	2519.221774038073	123.9258752460222	1000.579182190355	2503.384685871016	159.1966979594527	1050.62191517292	2375.833627301454	1153.824514596693	925.9601042365701	2721.411962994614	138.5531398177924	1051.770362646367	2671.050759031425	124.6054726643946	954.0331052647466	2297.018816440296	1111.307597190041	1036.243595050315	2559.305326296453	255.6682422839408	980.8045654844003	2521.437042080206	261.1534486441673	1019.669964764925	2553.534720044701	333.2061976299798	963.1256207552167	2516.249639978937	339.623737813612	1001.246897010794	2569.955206945846	684.76624147837	939.173615877338	2509.245677319743	656.3456175236503	968.7774989238883	2513.966282042912	776.4452668167135	914.36655412423	2455.915962527949	749.8190334312247	941.5218183446082	2477.308549479525	1059.433753975696	1170.527045594565	-134706638.1147016	27168193.45158948	-79778420.20954214	1714.290431667571	406.1786031571979	1067.187499366794	1722.568585908396	375.5376188603041	1121.339019795709	1759.948605391082	406.0801458078159	1085.705107372581	2456.030957357626	1146.53800246279	1209.994193382409	1777.693174491902	197.8921001809566	1053.921745704496	1724.248235460396	217.8464232126136	1153.352045703726	2307.975112069507	1114.231205514218	1118.646601854024	1816.526415771739	399.5707266367199	1155.136834196399	1806.949293826963	421.272698117597	1109.308908910295	1869.816873752012	463.3970074240087	1171.820681014126	1856.033984709996	483.308506788309	1124.374923960937	2187.139103226204	708.2873092278514	1215.238119162949	2132.394252464594	737.5749798245278	1176.30042896347	2229.444908461943	809.8437596555289	1229.307674139121	2179.243313285951	836.0529751608736	1190.38326904217	
1690	11.26	2456.15389450336	1076.523315891854	963.9094358500706	2522.875489308102	96.64057740672756	1052.86884512266	2546.67873491902	112.5315262207013	1001.551196441758	2527.702869074189	147.134975560909	1050.929200826261	2375.498533945915	1153.062941628972	925.6538305140228	2746.467872095771	143.4677385104378	1054.433807619752	2698.332259789681	124.1401815015071	956.4584167582815	2297.738931651718	1111.828983762051	1036.422425482736	2576.376793256008	247.7104019477697	981.4433777097083	2538.085574960969	250.5515860132115	1020.058023148516	2565.202723773733	324.5341066090861	963.4788903825031	2527.368968902316	328.3132639195497	1001.368425315586	2561.169969959673	678.0488231707803	939.6580588630517	2500.733269913906	651.9798875548595	971.4717126788221	2506.928967043741	770.5523326566185	914.1520028895138	2448.990172946043	746.1027048403424	943.354611642969	2478.577780412886	1061.836084858963	1170.315703887619	-134947625.8622127	27218213.28441392	-79920707.31673513	1704.556963649781	428.3456512736756	1067.719432013302	1711.720782468186	397.3061577236621	1121.785827618909	1750.126872144259	426.2517920171944	1085.879571438557	2456.241314349013	1149.609105385958	1209.027424636564	1759.272491621042	218.071392269064	1053.988155836585	1707.070823222356	239.9960323544727	1153.747157483442	2309.041369796832	1115.992743391846	1118.895304623752	1807.104882948861	416.7181768800079	1155.135307780667	1798.728866074477	439.2616953038068	1109.498737811212	1863.748826219645	477.4940223676982	1172.171543053813	1851.114234690848	498.4866334224956	1124.878104340529	2191.103441276897	708.2208682297784	1216.506656650491	2136.150293654003	736.9578332570227	1177.318987914087	2232.660421536699	810.101526980326	1230.222473477908	2182.250883040199	835.8035705950024	1191.19115584452	
1691	11.26666666666667	2455.931593702868	1076.331853298625	963.9747189090502	2549.383787550271	86.13697785063825	1053.488394755066	2572.466558974487	103.1556979841171	1002.181725047147	2550.425726868665	136.8164884170249	1050.928803571864	2375.245161413646	1151.872274315339	925.440969100221	2768.808283508789	149.5128421027115	1056.956832888267	2723.294841380831	125.3398606713007	958.704692919958	2298.28408259484	1111.752494547153	1036.644551468636	2592.041715200565	241.0764196216811	981.9490804394492	2553.407163619967	241.2755756671778	1020.237810389627	2575.725858530285	316.9252770133905	963.773378378494	2537.43635880005	318.0614965092509	1001.357029731804	2551.703330535867	670.9576797092437	940.3844428357237	2491.673831653947	647.4373670788085	974.6101871932011	2499.322128750973	764.2821439645544	914.0686204626355	2441.583586926277	742.1427647663331	945.4227209909445	2479.669420711028	1063.777508998681	1170.337459021129	-135188900.8237548	27268294.4141715	-80063163.50056812	1696.216713904816	450.6412991367397	1068.639101075673	1702.483068626765	419.2448093701387	1122.590174362067	1741.688456089995	446.5129857905977	1086.185727441529	2455.621973377135	1152.223435856194	1208.316432808061	1741.741727940891	238.7368951909968	1054.076534206924	1691.505700707745	262.6441662799378	1154.486095180312	2309.875626937746	1117.021794580369	1119.205068381258	1799.113364922611	433.7459632505248	1155.212511580618	1791.873159468332	457.2213198084846	1109.885492787069	1859.058073668149	491.1918940110181	1172.653444227853	1847.514902628835	513.365496003451	1125.619869651779	2195.788807729498	706.9136303562885	1217.617729735543	2140.566857585946	735.0307955335959	1178.214354814778	2236.381877433329	809.1989992124493	1231.076106925507	2185.704217712685	834.3323571903818	1191.972558206958	
